# xmcd
#
# Track frame offsets:
#   150
#   11377
#   22388
#   33164
#   46422
#   57704
#   67686
#   80000
#   92620
#   105169
#   120212
#   132046
#
# Disc length: 1924 seconds
#
# Revision: 0
# Processed by: cddbd v1.4PL0 Copyright (c) Steve Scherf et al.
# Submitted via: uFREEDB 1.6.0
#
DISCID=8b07820c
DTITLE=Martin, Dean - (Remember Me) I'm The One Who Loves You
DYEAR=1965
DGENRE=Country
TTITLE0=Remember Me (I'm The One Who Loves You)
TTITLE1=King Of The Road
TTITLE2=Welcome To My World
TTITLE3=My Shoes Keep Walking Back To You
TTITLE4=Born To Lose
TTITLE5=The Birds And The Bees
TTITLE6=Walk On By
TTITLE7=Red Roses For A Blue Lady
TTITLE8=Take These Chains From My Heart
TTITLE9=Here Comes My Baby
TTITLE10=I Don't Think You Love Me Anymore
TTITLE11=Bumming Around
EXTD=
EXTT0=
EXTT1=
EXTT2=
EXTT3=
EXTT4=
EXTT5=
EXTT6=
EXTT7=
EXTT8=
EXTT9=
EXTT10=
EXTT11=
PLAYORDER=
